<svg width="64" height="64" viewBox="0 0 64 64" fill="none" xmlns="http://www.w3.org/2000/svg">
<path d="M60 52H56V24C56 22.9391 55.5786 21.9217 54.8284 21.1715C54.0783 20.4214 53.0609 20 52 20H36V7.99998C36.0005 7.27563 35.8042 6.56476 35.4323 5.94323C35.0603 5.32169 34.5265 4.81283 33.8879 4.47095C33.2494 4.12907 32.5299 3.96701 31.8064 4.00206C31.0829 4.03711 30.3825 4.26797 29.78 4.66998L9.78 18C9.23135 18.366 8.78173 18.8621 8.47117 19.4439C8.16061 20.0258 7.99875 20.6754 8 21.335V52H4C3.46957 52 2.96086 52.2107 2.58579 52.5858C2.21071 52.9608 2 53.4695 2 54C2 54.5304 2.21071 55.0391 2.58579 55.4142C2.96086 55.7893 3.46957 56 4 56H60C60.5304 56 61.0391 55.7893 61.4142 55.4142C61.7893 55.0391 62 54.5304 62 54C62 53.4695 61.7893 52.9608 61.4142 52.5858C61.0391 52.2107 60.5304 52 60 52ZM52 24V52H36V24H52ZM12 21.335L32 7.99998V52H12V21.335ZM28 28V32C28 32.5304 27.7893 33.0391 27.4142 33.4142C27.0391 33.7893 26.5304 34 26 34C25.4696 34 24.9609 33.7893 24.5858 33.4142C24.2107 33.0391 24 32.5304 24 32V28C24 27.4695 24.2107 26.9608 24.5858 26.5858C24.9609 26.2107 25.4696 26 26 26C26.5304 26 27.0391 26.2107 27.4142 26.5858C27.7893 26.9608 28 27.4695 28 28ZM20 28V32C20 32.5304 19.7893 33.0391 19.4142 33.4142C19.0391 33.7893 18.5304 34 18 34C17.4696 34 16.9609 33.7893 16.5858 33.4142C16.2107 33.0391 16 32.5304 16 32V28C16 27.4695 16.2107 26.9608 16.5858 26.5858C16.9609 26.2107 17.4696 26 18 26C18.5304 26 19.0391 26.2107 19.4142 26.5858C19.7893 26.9608 20 27.4695 20 28ZM20 42V46C20 46.5304 19.7893 47.0391 19.4142 47.4142C19.0391 47.7893 18.5304 48 18 48C17.4696 48 16.9609 47.7893 16.5858 47.4142C16.2107 47.0391 16 46.5304 16 46V42C16 41.4695 16.2107 40.9608 16.5858 40.5858C16.9609 40.2107 17.4696 40 18 40C18.5304 40 19.0391 40.2107 19.4142 40.5858C19.7893 40.9608 20 41.4695 20 42ZM28 42V46C28 46.5304 27.7893 47.0391 27.4142 47.4142C27.0391 47.7893 26.5304 48 26 48C25.4696 48 24.9609 47.7893 24.5858 47.4142C24.2107 47.0391 24 46.5304 24 46V42C24 41.4695 24.2107 40.9608 24.5858 40.5858C24.9609 40.2107 25.4696 40 26 40C26.5304 40 27.0391 40.2107 27.4142 40.5858C27.7893 40.9608 28 41.4695 28 42Z" fill="#820091"/>
</svg>
