<svg width="64" height="64" viewBox="0 0 64 64" fill="none" xmlns="http://www.w3.org/2000/svg">
<path d="M49.0296 31.9999C55.1921 23.3474 58.3346 14.4049 53.9646 10.0349C49.5946 5.66494 40.6521 8.80744 31.9996 14.9699C23.3471 8.80744 14.4046 5.66494 10.0346 10.0349C5.66463 14.4049 8.80713 23.3474 14.9696 31.9999C8.80713 40.6524 5.66463 49.5949 10.0346 53.9649C11.4421 55.3724 13.3221 55.9999 15.5121 55.9999C20.1321 55.9999 26.1321 53.2074 32.0121 49.0299C37.8671 53.2074 43.8671 55.9999 48.4996 55.9999C50.6896 55.9999 52.5721 55.3699 53.9771 53.9649C58.3346 49.5949 55.1921 40.6524 49.0296 31.9999ZM51.1371 12.8624C53.0471 14.7724 51.7571 20.9624 46.5071 28.6824C44.8462 26.6264 43.0779 24.6595 41.2096 22.7899C39.3399 20.9242 37.373 19.1584 35.3171 17.4999C43.0371 12.2499 49.2271 10.9499 51.1371 12.8624ZM44.0721 31.9999C42.3031 34.2378 40.4031 36.3691 38.3821 38.3824C36.3688 40.4034 34.2375 42.3034 31.9996 44.0724C29.7617 42.3034 27.6305 40.4034 25.6171 38.3824C23.5962 36.3691 21.6962 34.2378 19.9271 31.9999C23.4764 27.5273 27.527 23.4767 31.9996 19.9274C34.2375 21.6965 36.3688 23.5965 38.3821 25.6174C40.4031 27.6308 42.3031 29.762 44.0721 31.9999ZM12.8621 12.8624C13.4121 12.3099 14.3196 12.0249 15.5171 12.0249C18.4721 12.0249 23.1896 13.7499 28.6796 17.4999C26.6257 19.1597 24.6597 20.9255 22.7896 22.7899C20.9239 24.6597 19.1581 26.6266 17.4996 28.6824C12.2496 20.9624 10.9521 14.7724 12.8621 12.8624ZM12.8621 51.1374C10.9521 49.2274 12.2496 43.0374 17.4996 35.3174C19.1605 37.3735 20.9288 39.3404 22.7971 41.2099C24.6657 43.0742 26.63 44.8399 28.6821 46.4999C20.9621 51.7499 14.7721 53.0499 12.8621 51.1374ZM51.1371 51.1374C49.2271 53.0499 43.0371 51.7574 35.3171 46.5074C37.372 44.8452 39.3389 43.077 41.2096 41.2099C43.0754 39.3402 44.8412 37.3733 46.4996 35.3174C51.7496 43.0374 53.0471 49.2274 51.1371 51.1374ZM34.9996 31.9999C34.9996 32.5933 34.8237 33.1733 34.494 33.6666C34.1644 34.16 33.6959 34.5445 33.1477 34.7716C32.5995 34.9986 31.9963 35.058 31.4144 34.9423C30.8324 34.8265 30.2979 34.5408 29.8783 34.1213C29.4588 33.7017 29.173 33.1671 29.0573 32.5852C28.9415 32.0033 29.0009 31.4001 29.228 30.8519C29.4551 30.3037 29.8396 29.8352 30.3329 29.5055C30.8263 29.1759 31.4063 28.9999 31.9996 28.9999C32.7953 28.9999 33.5583 29.316 34.1209 29.8786C34.6836 30.4412 34.9996 31.2043 34.9996 31.9999Z" fill="#820091"/>
</svg>
