<svg width="36" height="36" viewBox="0 0 36 36" fill="none" xmlns="http://www.w3.org/2000/svg">
<path d="M32.1919 6.98769C32.0571 6.88269 31.9002 6.80975 31.7331 6.77442C31.5659 6.73909 31.3929 6.74229 31.2272 6.78379L22.6308 8.93253L14.0034 4.61816C13.7631 4.49826 13.4877 4.46833 13.2272 4.53379L4.22719 6.78379C3.98381 6.84462 3.76774 6.98506 3.61333 7.18278C3.45893 7.38051 3.37504 7.62417 3.375 7.87503V28.125C3.37503 28.296 3.41401 28.4647 3.48899 28.6183C3.56396 28.7719 3.67297 28.9064 3.80771 29.0116C3.94246 29.1168 4.09941 29.1899 4.26663 29.2254C4.43386 29.2609 4.60697 29.2577 4.77281 29.2163L13.3692 27.0675L21.9966 31.3819C22.1532 31.4591 22.3254 31.4995 22.5 31.5C22.592 31.5 22.6836 31.4886 22.7728 31.4663L31.7728 29.2163C32.0162 29.1554 32.2323 29.015 32.3867 28.8173C32.5411 28.6196 32.625 28.3759 32.625 28.125V7.87503C32.625 7.70393 32.586 7.53507 32.511 7.3813C32.4359 7.22754 32.3268 7.09292 32.1919 6.98769ZM14.625 7.44472L21.375 10.8197V28.5553L14.625 25.1803V7.44472ZM5.625 8.75394L12.375 7.06644V24.9961L5.625 26.6836V8.75394ZM30.375 27.2461L23.625 28.9336V11.0039L30.375 9.31644V27.2461Z" fill="#272229"/>
</svg>
