<svg width="36" height="36" viewBox="0 0 36 36" fill="none" xmlns="http://www.w3.org/2000/svg">
<path d="M30.375 13.5H24.75V7.875C24.75 7.57663 24.6315 7.29048 24.4205 7.0795C24.2095 6.86853 23.9234 6.75 23.625 6.75H6.75V5.625C6.75 5.32663 6.63147 5.04048 6.42049 4.82951C6.20952 4.61853 5.92337 4.5 5.625 4.5C5.32663 4.5 5.04048 4.61853 4.82951 4.82951C4.61853 5.04048 4.5 5.32663 4.5 5.625V30.375C4.5 30.6734 4.61853 30.9595 4.82951 31.1705C5.04048 31.3815 5.32663 31.5 5.625 31.5C5.92337 31.5 6.20952 31.3815 6.42049 31.1705C6.63147 30.9595 6.75 30.6734 6.75 30.375V29.25H19.125C19.4234 29.25 19.7095 29.1315 19.9205 28.9205C20.1315 28.7095 20.25 28.4234 20.25 28.125V22.5H30.375C30.6734 22.5 30.9595 22.3815 31.1705 22.1705C31.3815 21.9595 31.5 21.6734 31.5 21.375V14.625C31.5 14.3266 31.3815 14.0405 31.1705 13.8295C30.9595 13.6185 30.6734 13.5 30.375 13.5ZM22.5 9V13.5H6.75V9H22.5ZM18 27H6.75V22.5H18V27ZM29.25 20.25H6.75V15.75H29.25V20.25Z" fill="#272229"/>
</svg>
