<svg width="36" height="36" viewBox="0 0 36 36" fill="none" xmlns="http://www.w3.org/2000/svg">
<path d="M29.25 4.5H6.75C6.15326 4.5 5.58097 4.73705 5.15901 5.15901C4.73705 5.58097 4.5 6.15326 4.5 6.75V29.25C4.5 29.8467 4.73705 30.419 5.15901 30.841C5.58097 31.2629 6.15326 31.5 6.75 31.5H29.25C29.8467 31.5 30.419 31.2629 30.841 30.841C31.2629 30.419 31.5 29.8467 31.5 29.25V6.75C31.5 6.15326 31.2629 5.58097 30.841 5.15901C30.419 4.73705 29.8467 4.5 29.25 4.5ZM12.375 22.5C12.5975 22.5 12.815 22.566 13 22.6896C13.185 22.8132 13.3292 22.9889 13.4144 23.1945C13.4995 23.4 13.5218 23.6262 13.4784 23.8445C13.435 24.0627 13.3278 24.2632 13.1705 24.4205C13.0132 24.5778 12.8127 24.685 12.5945 24.7284C12.3762 24.7718 12.15 24.7495 11.9445 24.6644C11.7389 24.5792 11.5632 24.435 11.4396 24.25C11.316 24.065 11.25 23.8475 11.25 23.625C11.25 23.3266 11.3685 23.0405 11.5795 22.8295C11.7905 22.6185 12.0766 22.5 12.375 22.5ZM6.75 6.75H11.25V20.4441C10.4994 20.7094 9.86675 21.2316 9.46391 21.9184C9.06108 22.6051 8.91397 23.4121 9.0486 24.1968C9.18324 24.9814 9.59093 25.6933 10.1996 26.2064C10.8083 26.7196 11.5789 27.001 12.375 27.001C13.1711 27.001 13.9417 26.7196 14.5504 26.2064C15.1591 25.6933 15.5668 24.9814 15.7014 24.1968C15.836 23.4121 15.6889 22.6051 15.2861 21.9184C14.8832 21.2316 14.2506 20.7094 13.5 20.4441V16.2155L20.25 22.9655V29.25H6.75V6.75ZM29.25 29.25H22.5V22.5C22.5001 22.3522 22.4711 22.2059 22.4147 22.0693C22.3582 21.9327 22.2754 21.8086 22.1709 21.7041L13.5 13.0345V6.75H18V10.125C17.9999 10.2728 18.0289 10.4191 18.0853 10.5557C18.1418 10.6923 18.2246 10.8164 18.3291 10.9209L20.5791 13.1709C20.3612 13.6246 20.2487 14.1217 20.25 14.625C20.25 15.2925 20.4479 15.945 20.8188 16.5C21.1896 17.0551 21.7167 17.4876 22.3334 17.7431C22.9501 17.9985 23.6287 18.0654 24.2834 17.9352C24.9381 17.8049 25.5395 17.4835 26.0115 17.0115C26.4835 16.5395 26.8049 15.9381 26.9352 15.2834C27.0654 14.6287 26.9985 13.9501 26.7431 13.3334C26.4876 12.7167 26.0551 12.1896 25.5 11.8188C24.945 11.4479 24.2925 11.25 23.625 11.25C23.1216 11.2491 22.6245 11.3621 22.1709 11.5805L20.25 9.65953V6.75H29.25V29.25ZM23.625 13.5C23.8475 13.5 24.065 13.566 24.25 13.6896C24.435 13.8132 24.5792 13.9889 24.6644 14.1945C24.7495 14.4 24.7718 14.6262 24.7284 14.8445C24.685 15.0627 24.5778 15.2632 24.4205 15.4205C24.2632 15.5778 24.0627 15.685 23.8445 15.7284C23.6262 15.7718 23.4 15.7495 23.1945 15.6644C22.9889 15.5792 22.8132 15.435 22.6896 15.25C22.566 15.065 22.5 14.8475 22.5 14.625C22.5 14.3266 22.6185 14.0405 22.8295 13.8295C23.0405 13.6185 23.3266 13.5 23.625 13.5Z" fill="#272229"/>
</svg>
