<svg width="36" height="36" viewBox="0 0 36 36" fill="none" xmlns="http://www.w3.org/2000/svg">
<path d="M14.0627 16.373C14.2338 16.2742 14.3758 16.1322 14.4745 15.9611C14.5733 15.79 14.6253 15.596 14.6252 15.3984V5.27344C14.6242 5.09408 14.5803 4.91756 14.4972 4.7586C14.4142 4.59964 14.2943 4.46285 14.1476 4.35964C14.0009 4.25643 13.8316 4.1898 13.6539 4.16529C13.4763 4.14078 13.2953 4.15911 13.1261 4.21875C9.84252 5.3809 7.08112 7.67622 5.33836 10.6921C3.59559 13.708 2.98576 17.2466 3.61849 20.6719C3.65128 20.849 3.72614 21.0157 3.83675 21.1578C3.94736 21.3 4.09049 21.4136 4.25411 21.4889C4.40157 21.5579 4.56243 21.5934 4.72521 21.593C4.92266 21.593 5.11666 21.5412 5.28771 21.4425L14.0627 16.373ZM12.3752 6.97781V14.7487L5.64208 18.6342C5.62521 18.4219 5.62521 18.2081 5.62521 18C5.6272 15.7196 6.25843 13.4839 7.44938 11.5392C8.64034 9.59445 10.3448 8.01606 12.3752 6.97781ZM30.7043 10.7606C30.6916 10.7353 30.679 10.7086 30.6635 10.6833C30.648 10.658 30.6354 10.6369 30.6199 10.6144C29.3304 8.41191 27.4873 6.58502 25.2736 5.31507C23.0598 4.04513 20.5524 3.3763 18.0002 3.375C17.7018 3.375 17.4157 3.49353 17.2047 3.7045C16.9937 3.91548 16.8752 4.20163 16.8752 4.5V17.4136L5.79255 23.8683C5.66394 23.9428 5.55139 24.0421 5.46139 24.1604C5.37138 24.2788 5.30572 24.4137 5.26819 24.5576C5.23066 24.7014 5.22201 24.8512 5.24274 24.9984C5.26347 25.1456 5.31317 25.2873 5.38896 25.4152C7.01496 28.184 9.50702 30.3408 12.4806 31.5527C15.4541 32.7646 18.7438 32.9642 21.8421 32.1207C24.9403 31.2771 27.6748 29.4374 29.6237 26.8854C31.5725 24.3334 32.6272 21.211 32.6252 18C32.6284 15.4605 31.9661 12.9645 30.7043 10.7606ZM19.1252 5.67563C20.9095 5.83986 22.6368 6.38938 24.188 7.28624C25.7392 8.1831 27.0772 9.40594 28.1097 10.8703L19.1252 16.103V5.67563ZM18.0002 30.375C16.0363 30.37 14.1014 29.8999 12.354 29.0034C10.6067 28.1069 9.09642 26.8093 7.94692 25.2169L18.5501 19.042L18.581 19.0223L29.2361 12.8166C30.1058 14.702 30.4872 16.7759 30.345 18.8474C30.2028 20.9189 29.5417 22.9213 28.4225 24.6702C27.3034 26.4191 25.7622 27.8583 23.9408 28.8552C22.1195 29.8522 20.0765 30.3748 18.0002 30.375Z" fill="#272229"/>
</svg>
