<svg width="36" height="37" viewBox="0 0 36 37" fill="none" xmlns="http://www.w3.org/2000/svg">
<path d="M30.0459 9.82906L24.4209 4.20406C24.3164 4.09962 24.1923 4.01681 24.0557 3.96035C23.9191 3.90389 23.7728 3.87488 23.625 3.875H12.375C11.7783 3.875 11.206 4.11205 10.784 4.53401C10.3621 4.95597 10.125 5.52826 10.125 6.125V8.375H7.875C7.27826 8.375 6.70597 8.61205 6.28401 9.03401C5.86205 9.45597 5.625 10.0283 5.625 10.625V30.875C5.625 31.4717 5.86205 32.044 6.28401 32.466C6.70597 32.8879 7.27826 33.125 7.875 33.125H23.625C24.2217 33.125 24.794 32.8879 25.216 32.466C25.6379 32.044 25.875 31.4717 25.875 30.875V28.625H28.125C28.7217 28.625 29.294 28.3879 29.716 27.966C30.1379 27.544 30.375 26.9717 30.375 26.375V10.625C30.3751 10.4772 30.3461 10.3309 30.2897 10.1943C30.2332 10.0577 30.1504 9.93362 30.0459 9.82906ZM23.625 30.875H7.875V10.625H18.6595L23.625 15.5905V27.4775C23.625 27.4859 23.625 27.493 23.625 27.5C23.625 27.507 23.625 27.5141 23.625 27.5225V30.875ZM28.125 26.375H25.875V15.125C25.8751 14.9772 25.8461 14.8309 25.7897 14.6943C25.7332 14.5577 25.6504 14.4336 25.5459 14.3291L19.9209 8.70406C19.8164 8.59962 19.6923 8.51681 19.5557 8.46035C19.4191 8.40389 19.2728 8.37488 19.125 8.375H12.375V6.125H23.1595L28.125 11.0905V26.375ZM20.25 21.875C20.25 22.1734 20.1315 22.4595 19.9205 22.6705C19.7095 22.8815 19.4234 23 19.125 23H12.375C12.0766 23 11.7905 22.8815 11.5795 22.6705C11.3685 22.4595 11.25 22.1734 11.25 21.875C11.25 21.5766 11.3685 21.2905 11.5795 21.0795C11.7905 20.8685 12.0766 20.75 12.375 20.75H19.125C19.4234 20.75 19.7095 20.8685 19.9205 21.0795C20.1315 21.2905 20.25 21.5766 20.25 21.875ZM20.25 26.375C20.25 26.6734 20.1315 26.9595 19.9205 27.1705C19.7095 27.3815 19.4234 27.5 19.125 27.5H12.375C12.0766 27.5 11.7905 27.3815 11.5795 27.1705C11.3685 26.9595 11.25 26.6734 11.25 26.375C11.25 26.0766 11.3685 25.7905 11.5795 25.5795C11.7905 25.3685 12.0766 25.25 12.375 25.25H19.125C19.4234 25.25 19.7095 25.3685 19.9205 25.5795C20.1315 25.7905 20.25 26.0766 20.25 26.375Z" fill="#272229"/>
</svg>
