<svg width="334" height="334" viewBox="0 0 334 334" fill="none" xmlns="http://www.w3.org/2000/svg">
<path d="M299.946 178.371L300.719 170.028L325.34 172.317L324.552 180.829C324.325 183.273 323.638 185.327 322.489 186.991C321.348 188.663 319.816 189.887 317.893 190.662C315.97 191.437 313.73 191.706 311.173 191.468C308.609 191.23 306.449 190.548 304.694 189.423C302.938 188.306 301.65 186.808 300.83 184.929C300.009 183.058 299.714 180.872 299.946 178.371ZM304.165 174.847L303.825 178.514C303.666 180.229 303.846 181.689 304.365 182.893C304.892 184.098 305.754 185.047 306.951 185.74C308.156 186.434 309.7 186.869 311.583 187.044C313.467 187.219 315.056 187.076 316.352 186.614C317.656 186.153 318.669 185.387 319.391 184.314C320.12 183.25 320.562 181.884 320.716 180.217L321.068 176.418L304.165 174.847Z" fill="white"/>
<path d="M295.17 203.22C295.656 201.476 296.461 200.071 297.585 199.006C298.709 197.942 300.06 197.249 301.636 196.93C303.21 196.618 304.92 196.719 306.765 197.235C308.61 197.751 310.129 198.552 311.322 199.638C312.513 200.731 313.314 202.025 313.725 203.519C314.136 205.013 314.098 206.632 313.612 208.377C313.126 210.121 312.32 211.526 311.196 212.591C310.072 213.656 308.719 214.343 307.137 214.653C305.553 214.971 303.838 214.871 301.993 214.356C300.149 213.84 298.634 213.036 297.451 211.945C296.266 210.861 295.468 209.572 295.057 208.078C294.646 206.584 294.684 204.965 295.17 203.22ZM298.536 204.187C298.272 205.133 298.311 205.996 298.653 206.777C299.003 207.56 299.577 208.23 300.374 208.788C301.169 209.353 302.109 209.787 303.195 210.09C304.288 210.396 305.32 210.513 306.293 210.443C307.271 210.382 308.112 210.107 308.816 209.619C309.52 209.13 310.004 208.413 310.268 207.467C310.538 206.498 310.499 205.618 310.152 204.827C309.802 204.044 309.225 203.368 308.422 202.801C307.625 202.244 306.68 201.813 305.587 201.507C304.502 201.204 303.474 201.083 302.504 201.146C301.531 201.217 300.693 201.497 299.989 201.985C299.29 202.484 298.806 203.217 298.536 204.187Z" fill="white"/>
<path d="M280.422 223.688C280.707 223.165 281.014 222.704 281.342 222.306C281.658 221.91 281.941 221.611 282.19 221.407L284.69 223.933C284.223 224.402 283.873 224.858 283.641 225.3C283.409 225.742 283.337 226.202 283.424 226.681C283.5 227.163 283.781 227.689 284.268 228.259L284.968 229.068L304.795 232.26L302.573 236.329L288.241 233.353L288.148 233.523L298.378 244.013L296.151 248.093L281.474 231.588C280.779 230.812 280.261 230.005 279.92 229.167C279.573 228.325 279.435 227.452 279.508 226.546C279.57 225.644 279.874 224.691 280.422 223.688Z" fill="white"/>
<path d="M272.426 248.696C273.533 247.262 274.807 246.263 276.249 245.7C277.69 245.136 279.201 245.003 280.782 245.3C282.357 245.604 283.902 246.342 285.417 247.515C286.932 248.688 288.037 250.002 288.734 251.458C289.426 252.92 289.681 254.42 289.499 255.96C289.318 257.499 288.674 258.985 287.567 260.419C286.461 261.853 285.187 262.852 283.745 263.415C282.304 263.979 280.792 264.106 279.21 263.797C277.623 263.495 276.073 262.758 274.558 261.585C273.043 260.412 271.943 259.097 271.258 257.64C270.568 256.189 270.313 254.694 270.495 253.155C270.676 251.616 271.32 250.129 272.426 248.696ZM275.18 250.858C274.58 251.636 274.292 252.451 274.315 253.304C274.344 254.161 274.624 254.998 275.152 255.815C275.676 256.638 276.384 257.394 277.275 258.084C278.172 258.779 279.085 259.277 280.012 259.577C280.94 259.889 281.823 259.951 282.659 259.764C283.495 259.577 284.213 259.094 284.813 258.317C285.428 257.52 285.723 256.69 285.698 255.826C285.669 254.968 285.389 254.126 284.858 253.298C284.33 252.481 283.616 251.725 282.719 251.03C281.828 250.341 280.921 249.842 279.999 249.535C279.072 249.235 278.19 249.178 277.354 249.366C276.52 249.564 275.795 250.062 275.18 250.858Z" fill="white"/>
<path d="M260.89 273.086L268.23 280.935L265.042 283.925L252.375 270.38L255.466 267.48L257.717 269.888L257.858 269.755C257.454 268.711 257.376 267.619 257.624 266.482C257.866 265.35 258.494 264.308 259.51 263.355C260.396 262.523 261.364 261.985 262.414 261.74C263.463 261.507 264.532 261.59 265.623 261.991C266.719 262.397 267.773 263.141 268.785 264.223L276.85 272.847L273.663 275.838L266.059 267.707C265.257 266.849 264.384 266.387 263.442 266.322C262.499 266.257 261.646 266.582 260.883 267.298C260.414 267.739 260.066 268.28 259.84 268.923C259.614 269.565 259.572 270.245 259.714 270.962C259.855 271.69 260.247 272.398 260.89 273.086Z" fill="white"/>
<path d="M237.346 281.229L250.727 295.089L246.803 297.2L237.769 287.254L237.62 287.334L240.849 300.404L236.969 302.492L227.905 292.644L227.745 292.73L231.047 305.679L227.113 307.796L222.971 288.964L226.98 286.807L235.966 296.204L236.189 296.084L233.327 283.392L237.346 281.229Z" fill="white"/>
<path d="M208.989 293.841C210.11 293.491 211.183 293.375 212.206 293.493C213.224 293.622 214.118 294.001 214.887 294.629C215.648 295.259 216.21 296.155 216.571 297.315C216.883 298.314 216.956 299.198 216.79 299.967C216.625 300.735 216.285 301.415 215.769 302.006C215.254 302.598 214.628 303.118 213.891 303.567C213.149 304.027 212.362 304.438 211.53 304.799C210.527 305.23 209.715 305.589 209.096 305.876C208.48 306.17 208.054 306.454 207.82 306.73C207.58 307.016 207.522 307.359 207.647 307.758L207.668 307.827C207.939 308.696 208.406 309.288 209.069 309.603C209.732 309.919 210.548 309.925 211.516 309.623C212.537 309.303 213.279 308.827 213.739 308.194C214.192 307.564 214.427 306.912 214.445 306.24L218.513 305.576C218.541 306.748 218.314 307.806 217.832 308.749C217.353 309.7 216.658 310.516 215.749 311.196C214.842 311.885 213.77 312.422 212.534 312.809C211.681 313.075 210.801 313.241 209.893 313.305C208.986 313.369 208.111 313.28 207.268 313.038C206.428 312.803 205.674 312.36 205.007 311.708C204.333 311.058 203.813 310.146 203.446 308.97L199.754 297.12L203.764 295.866L204.522 298.299L204.661 298.255C204.761 297.684 204.974 297.112 205.301 296.537C205.623 295.973 206.089 295.452 206.699 294.974C207.304 294.507 208.067 294.129 208.989 293.841ZM208.861 297.246C208.023 297.508 207.349 297.9 206.837 298.423C206.328 298.953 205.994 299.546 205.836 300.203C205.671 300.862 205.69 301.518 205.893 302.171L206.543 304.258C206.64 304.109 206.832 303.94 207.118 303.749C207.397 303.561 207.717 303.372 208.08 303.183C208.443 302.993 208.804 302.813 209.163 302.642C209.523 302.47 209.835 302.322 210.1 302.197C210.696 301.918 211.21 301.606 211.642 301.26C212.073 300.914 212.378 300.524 212.554 300.089C212.733 299.662 212.739 299.18 212.571 298.642C212.332 297.873 211.87 297.381 211.188 297.164C210.505 296.947 209.729 296.975 208.861 297.246Z" fill="white"/>
<path d="M191.752 309.73L190.17 298.979L194.494 298.341L197.194 316.688L193.061 317.299L192.602 314.181L192.387 314.213C192.117 315.302 191.564 316.218 190.729 316.959C189.887 317.702 188.781 318.175 187.411 318.377C186.145 318.564 185.002 318.456 183.983 318.053C182.956 317.652 182.107 316.975 181.439 316.024C180.762 315.075 180.32 313.867 180.112 312.4L178.393 300.718L182.717 300.079L184.338 311.093C184.518 312.319 184.978 313.232 185.717 313.831C186.448 314.431 187.371 314.648 188.485 314.484C189.242 314.372 189.89 314.105 190.43 313.684C190.963 313.272 191.352 312.73 191.595 312.06C191.83 311.39 191.882 310.614 191.752 309.73Z" fill="white"/>
<path d="M164.268 319.517L164.216 316.137L174.876 315.972L174.928 319.353L164.268 319.517ZM172.365 323.836L167.995 323.904L167.726 306.495C167.717 305.908 167.622 305.458 167.44 305.147C167.25 304.844 167.005 304.639 166.706 304.53C166.406 304.422 166.075 304.371 165.713 304.377C165.44 304.381 165.19 304.405 164.966 304.449C164.733 304.493 164.556 304.532 164.436 304.566L163.647 301.16C163.879 301.076 164.212 300.983 164.645 300.879C165.07 300.776 165.592 300.712 166.212 300.686C167.306 300.637 168.294 300.787 169.177 301.135C170.06 301.492 170.765 302.053 171.292 302.817C171.811 303.582 172.076 304.544 172.085 305.703L172.365 323.836Z" fill="white"/>
<path d="M138.159 316.749L138.689 313.411L149.218 315.089L148.687 318.428L138.159 316.749ZM145.39 322.402L141.074 321.714L143.807 304.519C143.899 303.938 143.882 303.479 143.757 303.141C143.622 302.81 143.416 302.566 143.14 302.407C142.863 302.249 142.546 302.142 142.189 302.085C141.918 302.041 141.669 302.022 141.44 302.026C141.203 302.029 141.022 302.037 140.898 302.05L140.707 298.559C140.95 298.517 141.294 298.482 141.738 298.455C142.175 298.427 142.7 298.453 143.315 298.535C144.401 298.676 145.349 298.994 146.159 299.49C146.967 299.994 147.565 300.668 147.952 301.512C148.332 302.355 148.426 303.348 148.237 304.491L145.39 322.402Z" fill="white"/>
<path d="M129.308 295.038C131.045 295.552 132.437 296.38 133.485 297.521C134.533 298.662 135.206 300.024 135.502 301.606C135.792 303.186 135.665 304.894 135.123 306.732C134.581 308.569 133.758 310.076 132.656 311.252C131.546 312.426 130.241 313.207 128.742 313.594C127.243 313.981 125.625 313.918 123.889 313.404C122.152 312.89 120.76 312.062 119.712 310.921C118.664 309.78 117.997 308.415 117.71 306.828C117.415 305.238 117.539 303.524 118.081 301.687C118.623 299.85 119.448 298.348 120.556 297.181C121.656 296.013 122.956 295.235 124.455 294.848C125.954 294.46 127.572 294.524 129.308 295.038ZM128.294 298.389C127.353 298.11 126.489 298.136 125.703 298.466C124.916 298.804 124.238 299.367 123.669 300.155C123.093 300.942 122.645 301.875 122.327 302.956C122.005 304.045 121.873 305.076 121.93 306.05C121.977 307.029 122.239 307.875 122.717 308.587C123.195 309.299 123.905 309.795 124.846 310.074C125.811 310.359 126.691 310.334 127.487 309.999C128.275 309.661 128.958 309.096 129.536 308.301C130.105 307.513 130.549 306.574 130.871 305.486C131.189 304.405 131.324 303.379 131.275 302.407C131.219 301.433 130.951 300.59 130.473 299.878C129.985 299.171 129.259 298.675 128.294 298.389Z" fill="white"/>
<path d="M107.896 287.23L95.5699 308.666L91.784 306.482L96.3942 298.464L96.2373 298.374C95.8174 298.652 95.3032 298.908 94.6948 299.143C94.0825 299.384 93.3827 299.487 92.5956 299.451C91.8044 299.422 90.9382 299.136 89.9969 298.593C88.7558 297.877 87.8194 296.914 87.1874 295.704C86.5445 294.497 86.2853 293.107 86.4098 291.534C86.5234 289.964 87.0937 288.286 88.1209 286.5C89.136 284.734 90.288 283.401 91.5769 282.5C92.8658 281.598 94.1953 281.111 95.5655 281.037C96.9357 280.963 98.2518 281.29 99.5138 282.018C100.434 282.549 101.109 283.143 101.539 283.8C101.969 284.457 102.245 285.108 102.366 285.754C102.475 286.403 102.519 286.981 102.497 287.488L102.716 287.615L104.173 285.082L107.896 287.23ZM99.5609 293.127C100.159 292.087 100.536 291.092 100.692 290.141C100.842 289.187 100.764 288.329 100.459 287.568C100.143 286.809 99.5844 286.199 98.7826 285.736C97.9459 285.254 97.1168 285.073 96.2953 285.193C95.4697 285.321 94.6893 285.693 93.954 286.31C93.2078 286.93 92.5458 287.742 91.968 288.747C91.3943 289.745 91.0276 290.713 90.8681 291.653C90.7086 292.592 90.7848 293.445 91.0968 294.21C91.4088 294.975 91.9866 295.601 92.8303 296.088C93.6391 296.555 94.4482 296.738 95.2577 296.638C96.0672 296.538 96.8391 296.189 97.5733 295.59C98.3005 294.988 98.963 294.166 99.5609 293.127Z" fill="white"/>
<path d="M82.6504 270.059C84.0824 271.245 85.0732 272.568 85.6228 274.026C86.1611 275.486 86.2557 276.996 85.9067 278.556C85.5525 280.123 84.758 281.655 83.5231 283.151C82.3086 284.622 80.9638 285.682 79.4887 286.331C78.0022 286.982 76.4975 287.199 74.9745 286.982C73.4465 286.773 72.0005 286.103 70.6367 284.973C69.7564 284.244 69.0435 283.414 68.4981 282.481C67.9413 281.55 67.6057 280.54 67.4911 279.453C67.3704 278.36 67.5131 277.213 67.9191 276.013C68.3201 274.82 69.0381 273.596 70.0732 272.342L70.9264 271.308L82.634 281.004L80.7585 283.276L72.2777 276.252C71.751 276.903 71.4165 277.593 71.2742 278.322C71.1268 279.057 71.1776 279.773 71.4265 280.47C71.6692 281.162 72.113 281.775 72.7577 282.309C73.4458 282.879 74.1886 283.212 74.9861 283.308C75.7784 283.41 76.5432 283.312 77.2803 283.013C78.0062 282.716 78.6361 282.25 79.1701 281.615L80.8073 279.632C81.4939 278.8 81.9313 277.961 82.1194 277.113C82.3025 276.272 82.2519 275.467 81.9676 274.699C81.6783 273.937 81.1679 273.253 80.4363 272.647C79.9466 272.241 79.447 271.942 78.9375 271.75C78.4229 271.565 77.9071 271.488 77.3903 271.519C76.8735 271.551 76.3741 271.707 75.8923 271.988L73.0412 269.031C73.9262 268.363 74.9039 267.95 75.9743 267.791C77.0333 267.634 78.1346 267.741 79.2782 268.113C80.4166 268.492 81.5407 269.14 82.6504 270.059Z" fill="white"/>
<path d="M67.3983 255.215C68.623 256.603 69.3702 258.065 69.6399 259.6C69.9043 261.128 69.737 262.636 69.1379 264.123C68.5274 265.609 67.52 266.973 66.1154 268.216C64.7049 269.464 63.2205 270.294 61.6623 270.706C60.098 271.123 58.5779 271.103 57.1019 270.646C55.6145 270.189 54.2718 269.281 53.0738 267.923C52.0781 266.794 51.4048 265.611 51.054 264.374C50.6918 263.136 50.6586 261.924 50.9541 260.738C51.2437 259.557 51.8568 258.488 52.7936 257.53L55.557 260.663C54.9998 261.382 54.7084 262.177 54.683 263.049C54.6462 263.92 54.9766 264.751 55.6741 265.541C56.2651 266.212 56.9651 266.64 57.774 266.827C58.5769 267.019 59.4381 266.961 60.3574 266.653C61.2715 266.339 62.1957 265.768 63.13 264.941C64.0764 264.104 64.7677 263.245 65.2039 262.364C65.6341 261.489 65.8121 260.638 65.7379 259.812C65.6523 258.985 65.3087 258.23 64.707 257.548C64.281 257.065 63.8099 256.714 63.2936 256.493C62.766 256.272 62.2129 256.187 61.6343 256.237C61.0557 256.286 60.4737 256.484 59.8881 256.831L57.1247 253.698C58.1765 252.907 59.3031 252.426 60.5046 252.254C61.7 252.089 62.8924 252.248 64.0818 252.733C65.2652 253.222 66.3707 254.05 67.3983 255.215Z" fill="white"/>
<path d="M55.1604 238.87C56.1315 240.398 56.6372 241.937 56.6773 243.487C56.7174 245.036 56.3297 246.505 55.5142 247.893C54.6944 249.275 53.4767 250.48 51.8612 251.51C50.2457 252.539 48.6361 253.136 47.0327 253.298C45.4249 253.454 43.9289 253.186 42.5447 252.493C41.1606 251.8 39.9829 250.69 39.0118 249.161C38.0407 247.632 37.5351 246.093 37.495 244.544C37.4548 242.995 37.8481 241.527 38.6747 240.141C39.497 238.749 40.7159 237.538 42.3314 236.508C43.947 235.478 45.5552 234.888 47.1562 234.736C48.753 234.577 50.2434 234.845 51.6275 235.537C53.0117 236.23 54.1893 237.341 55.1604 238.87ZM52.1947 240.731C51.6682 239.902 51.0005 239.354 50.1918 239.087C49.3763 238.824 48.4953 238.803 47.5489 239.024C46.5981 239.239 45.6475 239.649 44.6972 240.255C43.7401 240.865 42.9631 241.555 42.3662 242.327C41.7583 243.096 41.4004 243.907 41.2928 244.758C41.1851 245.609 41.3945 246.449 41.9211 247.278C42.4606 248.128 43.1403 248.687 43.9601 248.957C44.7756 249.22 45.6621 249.242 46.6197 249.023C47.5662 248.802 48.5179 248.386 49.475 247.776C50.4254 247.17 51.2011 246.485 51.8023 245.72C52.3992 244.948 52.7514 244.137 52.8591 243.286C52.9557 242.432 52.7342 241.58 52.1947 240.731Z" fill="white"/>
<path d="M47.5939 227.55L30.2835 234.205L28.7887 230.304L31.7301 229.173L31.6524 228.97C30.5224 228.991 29.5195 228.69 28.6439 228.07C27.7607 227.452 27.0973 226.565 26.6538 225.407C26.2044 224.235 26.1112 223.136 26.374 222.113C26.6265 221.084 27.1777 220.217 28.0277 219.511L27.9585 219.33C26.85 219.317 25.8359 218.965 24.9164 218.275C23.9865 217.58 23.2811 216.606 22.8001 215.35C22.1895 213.757 22.1946 212.263 22.8154 210.869C23.4363 209.475 24.7121 208.406 26.643 207.664L38.2622 203.197L39.8304 207.29L28.8424 211.514C27.768 211.927 27.0923 212.515 26.8153 213.276C26.5308 214.041 26.547 214.837 26.8638 215.664C27.2411 216.648 27.8444 217.3 28.6736 217.62C29.4924 217.934 30.3902 217.904 31.3669 217.529L42.1634 213.378L43.6971 217.381L32.54 221.67C31.6459 222.013 31.0358 222.558 30.7097 223.305C30.3808 224.043 30.3819 224.845 30.7132 225.709C30.9378 226.296 31.2926 226.771 31.7774 227.137C32.2548 227.505 32.8186 227.728 33.469 227.806C34.1119 227.887 34.7902 227.79 35.504 227.515L46.03 223.469L47.5939 227.55Z" fill="white"/>
<path d="M36.2758 189.549C36.5817 191.383 36.4648 193.03 35.9251 194.492C35.3761 195.947 34.4586 197.149 33.1726 198.098C31.8787 199.049 30.2751 199.685 28.3618 200.005C26.4803 200.32 24.7694 200.239 23.2292 199.762C21.6797 199.279 20.4001 198.456 19.3904 197.295C18.3727 196.135 17.7182 194.682 17.4269 192.935C17.2389 191.808 17.244 190.713 17.4424 189.652C17.6315 188.584 18.0389 187.601 18.6646 186.705C19.2891 185.801 20.1477 185.029 21.2406 184.389C22.3255 183.75 23.6698 183.297 25.2735 183.028L26.5953 182.807L29.0959 197.801L26.1903 198.287L24.3789 187.426C23.5545 187.572 22.85 187.874 22.2652 188.331C21.6725 188.789 21.2418 189.363 20.9733 190.052C20.7035 190.734 20.6374 191.488 20.7751 192.314C20.9221 193.195 21.2655 193.933 21.8055 194.528C22.3375 195.125 22.9799 195.552 23.7328 195.809C24.4765 196.06 25.2578 196.122 26.0769 195.993L28.6133 195.568C29.6771 195.39 30.5577 195.043 31.2549 194.526C31.9442 194.011 32.4331 193.37 32.7214 192.604C33.0019 191.839 33.0639 190.988 32.9077 190.051C32.8031 189.424 32.6211 188.871 32.3617 188.392C32.0944 187.914 31.7549 187.518 31.3434 187.203C30.9318 186.889 30.4521 186.679 29.9043 186.575L29.6855 182.474C30.7917 182.55 31.8013 182.879 32.7144 183.461C33.6182 184.036 34.3804 184.839 35.0011 185.869C35.6139 186.901 36.0388 188.128 36.2758 189.549Z" fill="white"/>
<path d="M34.5803 161.586C34.5079 162.759 34.2338 163.802 33.7581 164.716C33.2747 165.622 32.6025 166.322 31.7413 166.817C30.8806 167.304 29.8437 167.51 28.6306 167.435C27.5862 167.37 26.7344 167.124 26.0753 166.696C25.4163 166.268 24.9024 165.708 24.5339 165.016C24.1653 164.324 23.9023 163.554 23.745 162.705C23.5802 161.848 23.4773 160.967 23.4364 160.061C23.3909 158.969 23.3447 158.084 23.298 157.403C23.2432 156.722 23.1289 156.223 22.9549 155.906C22.7734 155.58 22.4738 155.405 22.056 155.379L21.9837 155.374C21.0759 155.318 20.3563 155.544 19.825 156.051C19.2937 156.558 18.9968 157.318 18.9343 158.331C18.8684 159.399 19.049 160.261 19.4763 160.917C19.9041 161.564 20.4287 162.016 21.0499 162.272L20.2201 166.31C19.1152 165.919 18.208 165.33 17.4984 164.544C16.7808 163.758 16.2662 162.819 15.9545 161.727C15.6348 160.634 15.5149 159.442 15.5947 158.148C15.6498 157.256 15.809 156.375 16.0724 155.504C16.3358 154.633 16.7311 153.847 17.2583 153.146C17.7774 152.444 18.4603 151.898 19.307 151.507C20.1542 151.108 21.1924 150.946 22.4216 151.022L34.8098 151.789L34.551 155.983L32.0083 155.825L31.9994 155.97C32.4972 156.267 32.9562 156.67 33.3763 157.18C33.7889 157.682 34.1095 158.302 34.338 159.042C34.559 159.774 34.6398 160.622 34.5803 161.586ZM31.4447 160.254C31.4987 159.379 31.3728 158.609 31.067 157.945C30.7532 157.28 30.3177 156.757 29.7606 156.376C29.204 155.987 28.5842 155.771 27.9014 155.728L25.7202 155.593C25.8242 155.737 25.9143 155.976 25.9904 156.312C26.0669 156.639 26.129 157.006 26.1765 157.412C26.224 157.818 26.2637 158.22 26.2957 158.617C26.3276 159.014 26.3548 159.359 26.3771 159.65C26.4253 160.307 26.534 160.898 26.7031 161.425C26.8722 161.951 27.1283 162.374 27.4715 162.694C27.8067 163.013 28.2554 163.19 28.8178 163.225C29.6212 163.275 30.2458 163.019 30.6918 162.458C31.1377 161.897 31.3886 161.162 31.4447 160.254Z" fill="white"/>
<path d="M43.932 139.102L19.5364 131.679L20.7839 127.565L23.7179 128.458L23.7915 128.215C23.4257 127.868 23.0598 127.425 22.6938 126.884C22.3201 126.342 22.0616 125.682 21.9183 124.907C21.7673 124.129 21.8496 123.22 22.165 122.18C22.5808 120.809 23.3062 119.679 24.341 118.791C25.3705 117.893 26.6649 117.327 28.2241 117.095C29.778 116.853 31.5407 117.032 33.512 117.631C35.4603 118.224 37.019 119.048 38.1881 120.102C39.3572 121.156 40.1327 122.343 40.5148 123.662C40.8969 124.981 40.8765 126.338 40.4536 127.732C40.1452 128.749 39.72 129.541 39.1779 130.108C38.6358 130.675 38.0642 131.09 37.4629 131.353C36.8563 131.606 36.3035 131.779 35.8045 131.871L35.7519 132.044L45.2006 134.919L43.932 139.102ZM29.6516 130.276C30.799 130.625 31.853 130.769 32.8136 130.708C33.7765 130.639 34.594 130.371 35.266 129.902C35.9327 129.424 36.4004 128.741 36.669 127.855C36.9494 126.931 36.9378 126.082 36.6342 125.308C36.3229 124.532 35.7839 123.855 35.0172 123.276C34.2451 122.688 33.3047 122.225 32.1958 121.888C31.0946 121.553 30.0687 121.413 29.1182 121.469C28.1676 121.525 27.3551 121.791 26.6808 122.267C26.0064 122.743 25.5278 123.447 25.2451 124.379C24.9741 125.273 24.9789 126.103 25.2594 126.87C25.5399 127.637 26.0546 128.311 26.8036 128.892C27.5548 129.466 28.5042 129.927 29.6516 130.276Z" fill="white"/>
<path d="M46.8391 111.305C46.3223 112.361 45.669 113.219 44.8791 113.88C44.0856 114.531 43.1964 114.919 42.2116 115.045C41.2303 115.164 40.1942 114.955 39.1032 114.419C38.1641 113.958 37.4724 113.403 37.0282 112.754C36.584 112.106 36.3246 111.391 36.2499 110.61C36.1753 109.829 36.2281 109.016 36.4084 108.172C36.5851 107.317 36.8282 106.464 37.138 105.612C37.5147 104.586 37.8121 103.75 38.0299 103.104C38.2406 102.454 38.3265 101.949 38.2876 101.589C38.245 101.218 38.0359 100.941 37.6602 100.756L37.5952 100.724C36.7788 100.323 36.0281 100.255 35.343 100.519C34.6579 100.784 34.0924 101.371 33.6463 102.282C33.1755 103.243 33.0116 104.109 33.1545 104.879C33.301 105.641 33.6118 106.26 34.087 106.736L31.7721 110.145C30.9022 109.359 30.2906 108.467 29.9371 107.468C29.5765 106.466 29.4618 105.401 29.593 104.273C29.717 103.141 30.064 101.993 30.6339 100.829C31.0268 100.027 31.5119 99.274 32.0891 98.571C32.6663 97.8681 33.3328 97.2942 34.0884 96.8493C34.8367 96.4008 35.6767 96.1588 36.6083 96.1232C37.5435 96.0804 38.5637 96.3305 39.6691 96.8735L50.8094 102.346L48.9616 106.12L46.675 104.996L46.6113 105.127C46.9568 105.592 47.2257 106.141 47.4179 106.774C47.6064 107.396 47.6642 108.092 47.5912 108.863C47.5146 109.624 47.2639 110.438 46.8391 111.305ZM44.4556 108.87C44.8415 108.082 45.0206 107.323 44.9932 106.592C44.9585 105.857 44.7571 105.207 44.3892 104.64C44.0248 104.067 43.5355 103.629 42.9214 103.327L40.96 102.364C41.0009 102.536 40.9922 102.792 40.9337 103.131C40.8789 103.463 40.7954 103.825 40.6834 104.219C40.5715 104.612 40.454 104.998 40.3312 105.378C40.2083 105.757 40.1012 106.085 40.0099 106.363C39.8026 106.988 39.676 107.576 39.6301 108.127C39.5842 108.679 39.6583 109.168 39.8524 109.595C40.0393 110.019 40.3856 110.355 40.8913 110.603C41.6138 110.958 42.2885 110.962 42.9153 110.615C43.5422 110.269 44.0556 109.687 44.4556 108.87Z" fill="white"/>
<path d="M53.7495 97.5445L38.3331 87.2358L40.6836 83.7094L43.253 85.4275L43.3601 85.2668C42.6577 84.3904 42.2933 83.4495 42.2669 82.4442C42.2383 81.4277 42.5186 80.4774 43.1079 79.5933C43.2418 79.3924 43.4014 79.1747 43.5867 78.9403C43.7697 78.6948 43.9338 78.4994 44.0788 78.3544L47.421 80.5893C47.2648 80.7075 47.055 80.9207 46.7917 81.2287C46.5261 81.5256 46.2906 81.8281 46.0852 82.1362C45.6433 82.7993 45.3898 83.4916 45.3248 84.2131C45.2577 84.9234 45.3745 85.5971 45.6755 86.234C45.9764 86.871 46.4547 87.4087 47.1105 87.8472L56.1736 93.9076L53.7495 97.5445Z" fill="white"/>
<path d="M53.3577 67.0128L55.9614 69.169L49.1745 77.3909L46.5707 75.2346L53.3577 67.0128ZM44.8242 70.3708L47.6067 67.0001L61.016 78.1049C61.4686 78.4797 61.8721 78.6989 62.2266 78.7625C62.58 78.8149 62.8949 78.7621 63.1713 78.6043C63.4477 78.4465 63.7012 78.2279 63.9318 77.9486C64.106 77.7375 64.2494 77.5323 64.3618 77.3328C64.4794 77.1271 64.5643 76.9674 64.6163 76.8538L67.7168 78.4652C67.6302 78.6965 67.4858 79.0106 67.2835 79.4074C67.0863 79.798 66.7966 80.2375 66.4144 80.7257C65.7424 81.5905 64.9876 82.2456 64.1501 82.6912C63.3064 83.1317 62.423 83.3041 61.4999 83.2086C60.5819 83.1068 59.6791 82.6831 58.7915 81.9376L44.8242 70.3708Z" fill="white"/>
<path d="M83.6007 64.1672C82.1933 65.307 80.7233 65.9848 79.1907 66.2007C77.658 66.4165 76.1571 66.1975 74.6879 65.5437C73.2249 64.8848 71.8918 63.81 70.6885 62.3194C69.4851 60.8288 68.7124 59.2949 68.3703 57.7179C68.0345 56.1358 68.1324 54.6168 68.6639 53.1609C69.1955 51.705 70.165 50.4071 71.5724 49.2672C72.9798 48.1274 74.4498 47.4496 75.9824 47.2338C77.5151 47.0179 79.0154 47.2426 80.4834 47.9078C81.9577 48.5679 83.2965 49.6432 84.4998 51.1338C85.7032 52.6245 86.4702 54.1577 86.801 55.7335C87.138 57.3043 87.0407 58.8176 86.5092 60.2736C85.9776 61.7295 85.0081 63.0274 83.6007 64.1672ZM81.4201 61.4275C82.1832 60.8095 82.6519 60.083 82.8261 59.2479C82.9952 58.4066 82.9166 57.5277 82.5904 56.611C82.2705 55.6893 81.7566 54.7901 81.0488 53.9132C80.3359 53.0301 79.563 52.3354 78.7301 51.8291C77.8985 51.3115 77.0543 51.0475 76.1976 51.037C75.3408 51.0265 74.5309 51.3303 73.7678 51.9483C72.9859 52.5816 72.5072 53.3214 72.3319 54.1677C72.1628 55.009 72.2407 55.8936 72.5657 56.8216C72.8919 57.7382 73.4114 58.6381 74.1243 59.5212C74.8322 60.398 75.5994 61.0921 76.426 61.6035C77.2589 62.1098 78.1036 62.3682 78.9604 62.3787C79.8183 62.3778 80.6382 62.0608 81.4201 61.4275Z" fill="white"/>
<path d="M91.8385 35.5439L93.6092 38.4238L84.2784 44.1792L82.5077 41.2993L91.8385 35.5439ZM94.5537 55.6588L83.9235 38.3691C83.27 37.3063 82.9454 36.2865 82.9496 35.3098C82.9607 34.3289 83.2321 33.4333 83.7638 32.623C84.2956 31.8127 85.017 31.1265 85.9282 30.5645C86.5721 30.1673 87.1758 29.8659 87.7392 29.6602C88.3025 29.4546 88.7294 29.319 89.0197 29.2534L90.0505 32.5896C89.8634 32.6388 89.6352 32.7134 89.3659 32.8133C89.0924 32.9063 88.8084 33.0437 88.5138 33.2254C87.8219 33.6522 87.4353 34.1223 87.3542 34.6358C87.2756 35.1382 87.4261 35.6979 87.8055 36.3151L98.284 53.3579L94.5537 55.6588Z" fill="white"/>
<path d="M121.837 42.4426C120.135 43.0606 118.524 43.2215 117.004 42.9254C115.485 42.6293 114.137 41.9325 112.961 40.8352C111.793 39.7351 110.882 38.2843 110.231 36.4829C109.579 34.6815 109.348 32.9798 109.539 31.3777C109.737 29.773 110.325 28.3693 111.302 27.1668C112.28 25.9643 113.619 25.054 115.322 24.436C117.024 23.8181 118.635 23.6571 120.155 23.9533C121.674 24.2494 123.02 24.9513 124.191 26.059C125.37 27.1639 126.285 28.617 126.937 30.4185C127.589 32.2199 127.814 33.9192 127.613 35.5164C127.419 37.1109 126.834 38.5094 125.857 39.7119C124.88 40.9144 123.54 41.8247 121.837 42.4426ZM120.669 39.1419C121.592 38.8068 122.272 38.2731 122.709 37.5408C123.143 36.8008 123.355 35.9445 123.346 34.9718C123.344 33.9963 123.151 32.9788 122.767 31.9191C122.381 30.8519 121.877 29.9431 121.255 29.1929C120.637 28.4323 119.925 27.9073 119.118 27.6178C118.311 27.3284 117.447 27.3512 116.524 27.6862C115.578 28.0296 114.884 28.5726 114.442 29.3152C114.008 30.0551 113.793 30.9166 113.798 31.8996C113.808 32.8724 114.006 33.8923 114.392 34.9596C114.775 36.0192 115.274 36.9256 115.889 37.6786C116.512 38.4288 117.226 38.9487 118.033 39.2381C118.844 39.5173 119.723 39.4852 120.669 39.1419Z" fill="white"/>
<path d="M143.768 28.2141L141.758 17.658L146.051 16.8379L149.52 35.0559L145.357 35.8512L144.741 32.6132L144.551 32.6495C144.334 33.748 143.817 34.7114 143 35.5395C142.19 36.3661 141.101 36.9101 139.734 37.1714C138.54 37.3995 137.434 37.3362 136.416 36.9817C135.404 36.6177 134.544 35.9748 133.836 35.0529C133.127 34.1232 132.633 32.9308 132.356 31.4759L130.147 19.8761L134.44 19.056L136.523 29.9915C136.743 31.146 137.234 32.0028 137.996 32.562C138.758 33.1212 139.652 33.3026 140.68 33.1062C141.313 32.9854 141.896 32.7141 142.43 32.2925C142.965 31.8708 143.364 31.3193 143.627 30.6379C143.897 29.9472 143.944 29.1392 143.768 28.2141Z" fill="white"/>
<path d="M154.754 34.5767L153.754 16.0582L157.986 15.829L158.152 18.9154L158.345 18.9049C158.625 17.8177 159.159 16.9625 159.948 16.3394C160.744 15.7078 161.673 15.3633 162.734 15.3058C162.975 15.2928 163.245 15.2902 163.543 15.2982C163.85 15.2978 164.104 15.3122 164.307 15.3415L164.524 19.3562C164.336 19.302 164.039 19.2616 163.635 19.2351C163.238 19.2002 162.855 19.1927 162.485 19.2128C161.689 19.2559 160.983 19.4674 160.367 19.8474C159.758 20.2189 159.289 20.7159 158.96 21.3383C158.631 21.9607 158.488 22.6658 158.53 23.4534L159.118 34.3403L154.754 34.5767Z" fill="white"/>
<path d="M187.496 36.001C185.666 35.7236 184.155 35.0834 182.963 34.0806C181.78 33.0789 180.941 31.816 180.446 30.292C179.961 28.7612 179.859 27.0686 180.139 25.2141C180.42 23.3518 181.027 21.7625 181.958 20.4464C182.891 19.1224 184.07 18.1613 185.495 17.5633C186.93 16.9585 188.543 16.7917 190.333 17.0631C191.821 17.2887 193.097 17.7629 194.16 18.4858C195.232 19.2019 196.035 20.1093 196.569 21.2079C197.105 22.2985 197.32 23.5117 197.216 24.8473L193.086 24.2213C193.052 23.3125 192.766 22.516 192.226 21.8317C191.695 21.1407 190.909 20.7162 189.866 20.5582C188.983 20.4243 188.171 20.5455 187.43 20.9217C186.691 21.2899 186.067 21.8874 185.56 22.7142C185.06 23.5421 184.717 24.5729 184.531 25.8066C184.342 27.0561 184.363 28.1583 184.593 29.1131C184.824 30.06 185.234 30.8263 185.821 31.4119C186.417 31.9908 187.165 32.3483 188.064 32.4846C188.701 32.5811 189.288 32.548 189.825 32.3852C190.372 32.2157 190.851 31.9261 191.263 31.5163C191.675 31.1066 191.995 30.581 192.222 29.9398L196.352 30.5658C196.053 31.8474 195.497 32.9396 194.685 33.8423C193.874 34.737 192.857 35.3807 191.634 35.7733C190.411 36.1579 189.032 36.2338 187.496 36.001Z" fill="white"/>
<path d="M206.772 40.4589C205.046 39.912 203.67 39.0581 202.643 37.8972C201.617 36.7363 200.97 35.3621 200.704 33.7747C200.444 32.1896 200.603 30.4837 201.18 28.6568C201.756 26.83 202.607 25.339 203.731 24.1837C204.864 23.0309 206.183 22.2751 207.689 21.9162C209.195 21.5573 210.811 21.6513 212.538 22.1982C214.264 22.745 215.64 23.5989 216.667 24.7598C217.693 25.9207 218.334 27.2975 218.591 28.8903C218.856 30.4854 218.7 32.1964 218.123 34.0232C217.546 35.8501 216.693 37.336 215.563 38.4812C214.441 39.6287 213.127 40.3819 211.621 40.7408C210.115 41.0997 208.499 41.0057 206.772 40.4589ZM207.85 37.1272C208.786 37.4237 209.65 37.4145 210.441 37.0995C211.235 36.7768 211.924 36.2266 212.507 35.4488C213.098 34.6734 213.563 33.7484 213.902 32.6738C214.244 31.5915 214.396 30.563 214.357 29.5883C214.329 28.6084 214.083 27.7578 213.618 27.0365C213.154 26.3153 212.453 25.8064 211.517 25.5099C210.558 25.2061 209.678 25.2143 208.876 25.5345C208.082 25.8572 207.388 26.41 206.795 27.1931C206.212 27.9709 205.749 28.901 205.408 29.9833C205.068 31.0579 204.914 32.0813 204.945 33.0536C204.983 34.0283 205.235 34.8762 205.699 35.5975C206.174 36.3135 206.89 36.8234 207.85 37.1272Z" fill="white"/>
<path d="M220.049 44.2591L229.056 28.0475L232.705 30.0813L231.174 32.836L231.364 32.9418C232.218 32.2011 233.179 31.7879 234.249 31.7022C235.323 31.6095 236.401 31.8648 237.484 32.4683C238.58 33.0796 239.356 33.8623 239.812 34.8164C240.278 35.7673 240.411 36.7864 240.213 37.8735L240.381 37.9675C241.24 37.2668 242.244 36.8861 243.392 36.8255C244.55 36.7618 245.717 37.0571 246.891 37.7115C248.381 38.5423 249.336 39.6917 249.754 41.1596C250.173 42.6276 249.879 44.2658 248.875 46.0741L242.829 56.9557L239.001 54.822L244.718 44.5314C245.277 43.5252 245.418 42.641 245.142 41.8788C244.87 41.1095 244.347 40.5094 243.573 40.0783C242.652 39.565 241.771 39.4518 240.93 39.7388C240.101 40.0227 239.432 40.622 238.923 41.5367L233.306 51.6478L229.562 49.5611L235.367 39.1122C235.832 38.2749 235.95 37.4654 235.722 36.6837C235.5 35.9059 234.985 35.2916 234.176 34.841C233.628 34.5353 233.051 34.3978 232.444 34.4285C231.842 34.4521 231.266 34.6427 230.718 35.0004C230.173 35.3511 229.715 35.8607 229.344 36.5291L223.867 46.387L220.049 44.2591Z" fill="white"/>
<path d="M243.007 65.9979L259.666 46.6915L262.916 49.5047L260.912 51.8266L261.104 51.9925C261.569 51.7987 262.122 51.6442 262.764 51.529C263.411 51.4076 264.117 51.439 264.883 51.6231C265.655 51.801 266.451 52.2456 267.273 52.9568C268.356 53.8946 269.093 55.0174 269.485 56.3253C269.888 57.6324 269.88 59.0465 269.46 60.5677C269.052 62.0881 268.175 63.6283 266.829 65.1885C265.499 66.7303 264.115 67.8219 262.68 68.4633C261.244 69.1048 259.846 69.3322 258.487 69.1456C257.128 68.959 255.897 68.389 254.796 67.4354C253.992 66.74 253.442 66.0291 253.143 65.3026C252.845 64.5762 252.698 63.8844 252.702 63.2274C252.716 62.5695 252.783 61.9935 252.901 61.4995L252.764 61.3809L246.312 68.8585L243.007 65.9979ZM256.849 56.5173C256.065 57.4253 255.507 58.3313 255.174 59.2351C254.846 60.1441 254.76 61.0014 254.916 61.8068C255.083 62.6113 255.516 63.3165 256.216 63.9223C256.947 64.5545 257.726 64.889 258.556 64.9256C259.391 64.9562 260.227 64.7383 261.066 64.2717C261.916 63.8043 262.719 63.1318 263.476 62.2543C264.228 61.3828 264.771 60.5008 265.105 59.6084C265.44 58.7159 265.526 57.8644 265.364 57.0537C265.202 56.2431 264.753 55.519 264.017 54.8816C263.311 54.2705 262.551 53.9375 261.738 53.8825C260.924 53.8275 260.1 54.0246 259.266 54.4737C258.438 54.9281 257.632 55.6093 256.849 56.5173Z" fill="white"/>
<path d="M267.339 80.0809C266.584 79.1801 266.065 78.234 265.78 77.2428C265.507 76.2526 265.512 75.281 265.796 74.328C266.084 73.3812 266.693 72.5168 267.624 71.7347C268.425 71.0615 269.211 70.6528 269.983 70.5088C270.755 70.3647 271.513 70.4167 272.256 70.6647C272.999 70.9127 273.72 71.2902 274.417 71.7972C275.127 72.3052 275.808 72.8737 276.461 73.5026C277.245 74.2631 277.888 74.8739 278.39 75.3353C278.898 75.7914 279.324 76.0745 279.668 76.1847C280.024 76.2959 280.362 76.2168 280.682 75.9475L280.738 75.9009C281.434 75.3157 281.8 74.6558 281.836 73.9213C281.872 73.1868 281.564 72.4309 280.912 71.6534C280.225 70.8328 279.501 70.3321 278.74 70.1512C277.985 69.9765 277.294 70.0104 276.668 70.2529L274.491 66.7518C275.56 66.2736 276.622 66.0748 277.677 66.1557C278.738 66.2313 279.757 66.5577 280.734 67.1349C281.717 67.707 282.625 68.4897 283.457 69.4831C284.031 70.1679 284.522 70.9171 284.931 71.7304C285.339 72.5438 285.593 73.3866 285.694 74.2588C285.801 75.1258 285.682 75.9931 285.338 76.8607C284.999 77.7345 284.358 78.5676 283.415 79.36L273.914 87.346L271.215 84.1252L273.166 82.486L273.073 82.375C272.508 82.5028 271.898 82.5266 271.242 82.4465C270.599 82.3673 269.939 82.1381 269.265 81.7588C268.601 81.3806 267.959 80.8213 267.339 80.0809ZM270.526 78.8845C271.09 79.557 271.711 80.0287 272.389 80.2996C273.074 80.5654 273.749 80.6444 274.415 80.5369C275.086 80.4355 275.684 80.1647 276.207 79.7244L277.88 78.3184C277.706 78.286 277.476 78.1744 277.19 77.9835C276.91 77.7989 276.612 77.5756 276.298 77.3137C275.985 77.0518 275.679 76.7878 275.383 76.5218C275.087 76.2557 274.83 76.0245 274.613 75.8283C274.126 75.3855 273.641 75.0314 273.156 74.766C272.671 74.5006 272.194 74.3702 271.726 74.375C271.263 74.3746 270.817 74.5556 270.385 74.9182C269.769 75.4361 269.492 76.0523 269.556 76.7668C269.619 77.4814 269.942 78.1872 270.526 78.8845Z" fill="white"/>
<path d="M288.703 89.8798L279.391 95.482L277.143 91.7337L293.034 82.1725L295.183 85.7552L292.483 87.3798L292.595 87.5662C293.704 87.3967 294.76 87.5547 295.765 88.04C296.773 88.5323 297.634 89.3721 298.346 90.5594C299.004 91.6569 299.343 92.7541 299.362 93.8508C299.386 94.9545 299.088 95.9983 298.467 96.9823C297.851 97.9732 296.906 98.847 295.633 99.6037L285.515 105.691L283.267 101.943L292.805 96.204C293.867 95.5649 294.533 94.7887 294.802 93.8755C295.075 92.9691 294.921 92.0327 294.342 91.0663C293.948 90.4105 293.454 89.9144 292.858 89.5778C292.273 89.2441 291.624 89.0941 290.912 89.1278C290.205 89.1685 289.468 89.4191 288.703 89.8798Z" fill="white"/>
<path d="M282.52 115.773C282.299 115.22 282.138 114.69 282.04 114.183C281.936 113.687 281.885 113.278 281.886 112.956L285.423 112.629C285.487 113.288 285.616 113.848 285.809 114.308C286.002 114.768 286.311 115.117 286.735 115.354C287.155 115.602 287.74 115.719 288.488 115.704L289.557 115.678L304.624 102.377L306.348 106.681L294.941 115.87L295.013 116.05L309.602 114.808L311.33 119.123L289.277 119.98C288.237 120.025 287.286 119.913 286.424 119.643C285.554 119.377 284.794 118.928 284.142 118.296C283.485 117.675 282.945 116.834 282.52 115.773Z" fill="white"/>
<path d="M303.23 132.26L303.535 132.188C304.955 131.863 306.115 131.731 307.014 131.793C307.915 131.862 308.677 132.08 309.3 132.446C309.931 132.811 310.544 133.291 311.138 133.887C311.548 134.295 311.973 134.646 312.414 134.939C312.864 135.239 313.334 135.446 313.825 135.563C314.323 135.677 314.846 135.67 315.394 135.541C316.013 135.396 316.516 135.125 316.903 134.728C317.289 134.331 317.55 133.856 317.685 133.304C317.822 132.759 317.82 132.185 317.679 131.581C317.548 131.025 317.303 130.524 316.943 130.08C316.592 129.641 316.135 129.315 315.572 129.1C315.019 128.891 314.369 128.853 313.624 128.987L312.643 124.802C314.141 124.491 315.472 124.559 316.634 125.005C317.799 125.459 318.764 126.191 319.53 127.202C320.298 128.221 320.842 129.416 321.163 130.787C321.514 132.284 321.56 133.662 321.301 134.922C321.044 136.19 320.504 137.255 319.681 138.118C318.868 138.987 317.799 139.578 316.475 139.889C315.581 140.099 314.748 140.141 313.975 140.017C313.204 139.901 312.482 139.644 311.811 139.248C311.139 138.852 310.504 138.344 309.904 137.724C309.363 137.182 308.834 136.756 308.315 136.448C307.799 136.148 307.231 135.967 306.613 135.905C306.005 135.85 305.285 135.916 304.452 136.103L304.147 136.175L303.23 132.26ZM296.375 136.029C296.209 135.324 296.318 134.658 296.7 134.03C297.082 133.403 297.634 133.005 298.355 132.835C299.06 132.67 299.723 132.783 300.344 133.174C300.964 133.566 301.357 134.114 301.523 134.819C301.686 135.517 301.577 136.179 301.194 136.807C300.814 137.442 300.271 137.842 299.566 138.008C299.088 138.12 298.625 138.101 298.176 137.95C297.729 137.807 297.342 137.567 297.016 137.23C296.698 136.9 296.485 136.499 296.375 136.029Z" fill="white"/>
</svg>
