<svg width="19" height="16" viewBox="0 0 19 16" fill="none" xmlns="http://www.w3.org/2000/svg">
<path d="M11.7378 0.474694L18.4878 7.2247C18.5575 7.29435 18.6128 7.37707 18.6506 7.46811C18.6883 7.55916 18.7077 7.65676 18.7077 7.75532C18.7077 7.85388 18.6883 7.95148 18.6506 8.04253C18.6128 8.13357 18.5575 8.21629 18.4878 8.28595L11.7378 15.0359C11.597 15.1767 11.4062 15.2557 11.2072 15.2557C11.0081 15.2557 10.8173 15.1767 10.6765 15.0359C10.5358 14.8952 10.4567 14.7043 10.4567 14.5053C10.4567 14.3063 10.5358 14.1154 10.6765 13.9747L16.1468 8.50532H1.45715C1.25824 8.50532 1.06748 8.4263 0.926823 8.28565C0.786171 8.145 0.707153 7.95423 0.707153 7.75532C0.707153 7.55641 0.786171 7.36564 0.926823 7.22499C1.06748 7.08434 1.25824 7.00532 1.45715 7.00532L16.1468 7.00532L10.6765 1.53594C10.5358 1.39521 10.4567 1.20434 10.4567 1.00532C10.4567 0.806296 10.5358 0.615425 10.6765 0.474694C10.8173 0.333963 11.0081 0.254902 11.2072 0.254902C11.4062 0.254902 11.597 0.333963 11.7378 0.474694Z" fill="white"/>
</svg>
